<?xml version="1.0" standalone="no"?>
<svg
  width="600"
  height="600"
  viewBox="0 0 600 600"
  xmlns="http://www.w3.org/2000/svg"
>
  <g transform="translate(300,300)">
    <path d="M110.1,-142.5C147.6,-124.2,186.5,-98.7,197.1,-64.4C207.6,-30.2,189.9,12.9,178.3,60.8C166.7,108.8,161.2,161.6,132.5,184.6C103.8,207.6,51.9,200.8,5.5,193.2C-40.9,185.7,-81.9,177.4,-111.4,154.6C-140.9,131.9,-158.9,94.7,-184.1,51.7C-209.2,8.7,-241.6,-40.2,-233.7,-79.6C-225.9,-118.9,-177.9,-148.9,-132.3,-164.5C-86.6,-180.2,-43.3,-181.6,-3.5,-176.7C36.2,-171.9,72.5,-160.8,110.1,-142.5Z" fill="#675fb9" />
  </g>
</svg>
    