<svg version="1" xmlns="http://www.w3.org/2000/svg" width="682.667" height="682.667" viewBox="0 0 512.000000 512.000000"><path d="M61 125.7c-1.4.7-4.7 2.2-7.5 3.3-2.7 1.2-5.9 2.5-7 3-1.1.6-5 2.1-8.7 3.5-3.7 1.3-8.7 3.3-11 4.4-6 2.7-8.2 3.4-9 3.3-1-.2-.9-.8-1 21.1v17.8l-4.6 6.2-4.6 6.2-.2 16.5c-.2 9.1-.5 37.4-.7 63l-.5 46.5-2.6 6.4c-1.4 3.6-2.6 7-2.6 7.7 0 .7 3.4 8.4 7.6 17.1l7.6 15.8-.1 16.5c-.2 24.3 0 31.9.8 35 0 .3 11.5.5 25.4.4h25.2l11-4.8c6.1-2.7 11.6-5.3 12.2-5.8.7-.6 1.3-.8 1.3-.5 0 .4 2.7-.7 6.1-2.3 6.7-3.1 5.2-1.2 27.2-35.3l7.6-11.8 21.1 29.8c11.7 16.4 21.6 30.2 22.1 30.7.4.5 7.9 1 16.6 1.2 35.7.8 43.1 1.2 44.3 1.9.9.5 1.1.4.6-.4-.6-.8-.1-1 1.6-.6 1.7.4 3-.1 4.8-1.9 2.8-3 3.7-3.2 4.2-.9.3 1.5 2.7 1.6 24.9 1.6 23.3-.1 24.7-.2 27-2.1 1.3-1.1 9.7-7.6 18.7-14.4l16.2-12.3.3-39 .2-39 44.3.1c24.4.1 44.5.4 44.7.6.2.2.5 24.1.6 53.2.1 37.5.5 52.9 1.3 53.2.6.2 9.3.5 19.2.7 10 .2 18.7.8 19.4 1.2.8.5 1.1.4.6-.3-.4-.7.2-1 1.7-.9 2.4.2 5.9-2.9 34-30.1l8.7-8.5.1-17.1c0-9.4.2-58.3.3-108.6.2-50.3.4-99.9.5-110.2.2-10.3 0-19.2-.3-19.7-.4-.5-1.4-1-2.4-.9-.9 0-9.6-.3-19.2-.7l-17.5-.6-13 4.9c-7.1 2.7-17.1 6.4-22.2 8.2-7.4 2.7-9.4 3.9-10.2 6-.5 1.4-1 8.3-1 15.5v40.6l-.1 27.7-43.5-.2-43.5-.1.1-50.8c0-28-.2-51.1-.5-51.4-.2-.3-9.6-.6-20.8-.7l-20.3-.2-8.2 3.3c-4.6 1.8-8.5 3.3-8.7 3.3-.3 0-.6-1-.8-2.2l-.3-2.2-28-.1-28-.2-8 3.7c-4.4 2-11.6 5.1-16.1 7-4.5 1.9-8.5 4.2-9 5.1-.5 1-4.2 6.6-8.3 12.6-4.1 5.9-12.2 17.8-17.9 26.3-5.8 8.5-12.4 18.2-14.7 21.5-2.3 3.3-11.2 16.4-19.9 29.2-8.6 12.8-16.1 23.5-16.5 23.8-.5.3-1-19.4-1.1-44.2-.3-79.2-.3-84.2-.9-85.2-1-1.6-46.1-2-49.1-.4zm186.5 65.9c0 6.9-.2 7.8-2.8 10.3-1.5 1.6-2.7 3.8-2.6 5.2 0 1.3-.2 10.7-.6 20.9-.4 10.2-.8 29.5-.9 43l-.3 24.5-3.1 5.1-3.1 5 .2 15.7c.1 8.6-.1 15.7-.5 15.7-.5 0-5.5-5.9-13.8-16.5-1.4-1.7-3.2-3.8-4-4.7-.8-.8-2.6-3-4-4.8-1.4-1.8-5.9-7.4-10-12.4-4.2-5-9.2-11.1-11.1-13.5l-3.6-4.3 3.8-5.7c2-3.1 4.6-7.2 5.7-9.1 1.7-3.1 24-39.7 37.7-62 2.9-4.7 6.7-11.1 8.6-14.3 1.9-3.1 3.6-5.7 3.9-5.7.3 0 .5 3.4.5 7.6z"/></svg>